<svg width="240" height="160" viewBox="0 0 240 160" fill="none" xmlns="http://www.w3.org/2000/svg">
<path fill-rule="evenodd" clip-rule="evenodd" d="M224.436 1.35932e-06L15.6366 1.96132e-05C7.5114 1.70286 1.13983 9.18201 -2.76147e-05 18.6645L-1.68905e-05 141.336C1.13985 150.818 7.51141 158.297 15.6366 160L224.436 160C232.562 158.297 238.933 150.818 239.985 141.336L239.985 18.6811C238.948 9.18198 232.562 1.60268 224.436 1.35932e-06Z" fill="white"/>
<path fill-rule="evenodd" clip-rule="evenodd" d="M224.437 2.42488e-05L15.6371 4.25027e-05C7.51191 1.70288 1.14034 9.18203 0.000482924 18.6645L0.000488281 79.95L240 79.95L240 18.6645C238.948 9.18201 232.562 1.60269 224.437 2.42488e-05Z" fill="#CE1127"/>
</svg>
