<svg width="240" height="160" viewBox="0 0 240 160" fill="none" xmlns="http://www.w3.org/2000/svg">
<path fill-rule="evenodd" clip-rule="evenodd" d="M15.5636 160H224.363C232.226 158.398 238.524 151.219 239.825 142.137H0.0877686C1.403 151.219 7.70143 158.398 15.5636 160Z" fill="#0033A0"/>
<path fill-rule="evenodd" clip-rule="evenodd" d="M0.0876784 142.137H239.825C239.912 141.937 239.912 141.636 240 141.436V124.458H0V141.419C0 141.636 0.0876784 141.937 0.0876784 142.137Z" fill="#FEFEFE"/>
<path d="M240 106.694H0V124.457H240V106.694Z" fill="#0033A0"/>
<path d="M240 88.8313H0V106.694H240V88.8313Z" fill="#FEFEFE"/>
<path d="M240 71.0686H0V88.8316H240V71.0686Z" fill="#0033A0"/>
<path d="M240 53.3054H0V71.0684H240V53.3054Z" fill="#FEFEFE"/>
<path d="M240 35.5427H0V53.3057H240V35.5427Z" fill="#0033A0"/>
<path fill-rule="evenodd" clip-rule="evenodd" d="M0 35.5424H240V18.681C239.912 18.3805 239.912 18.08 239.825 17.7795H0.0876784C0.0876784 18.08 0 18.3805 0 18.681V35.5424Z" fill="#FEFEFE"/>
<path fill-rule="evenodd" clip-rule="evenodd" d="M0.0877686 17.7796H239.825C238.51 8.79793 232.226 1.60258 224.363 0.0166016H15.5636C7.70143 1.60258 1.49068 8.78123 0.0877686 17.7796Z" fill="#0033A0"/>
<path fill-rule="evenodd" clip-rule="evenodd" d="M0 88.8314H77.7592V0H15.5489C7.42376 1.70284 1.05218 9.18196 0 18.6644V88.8314Z" fill="#0033A0"/>
<path d="M77.7592 35.5427H0V53.3057H77.7592V35.5427Z" fill="#FEFEFE"/>
<path d="M46.6615 0H31.1125V88.8314H46.6615V0Z" fill="#FEFEFE"/>
</svg>
