<svg width="240" height="160" viewBox="0 0 240 160" fill="none" xmlns="http://www.w3.org/2000/svg">
<path fill-rule="evenodd" clip-rule="evenodd" d="M15.7253 160H224.275C232.488 158.397 238.948 150.817 240 141.334V18.6664C238.948 9.18292 232.488 1.60284 224.275 0H15.7253C7.51189 1.60284 1.05225 9.18292 0 18.6664V141.334C1.05225 150.817 7.51189 158.397 15.7253 160Z" fill="#D30C1D"/>
<path fill-rule="evenodd" clip-rule="evenodd" d="M69.989 40.0208C82.4845 40.0208 93.4016 47.4005 99.6127 58.587C94.4538 52.0921 87.0296 47.9015 78.7285 47.9015C63.354 47.9015 50.7709 62.2769 50.7709 79.9415C50.7709 97.6061 63.354 111.982 78.7285 111.982C87.0296 111.982 94.4538 107.891 99.6127 101.296C93.4162 112.483 82.4845 119.962 69.989 119.962C50.6832 119.962 35.0457 101.997 35.0457 79.9415C35.0457 57.8858 50.6832 40.0208 69.989 40.0208Z" fill="#FEFEFE"/>
<path fill-rule="evenodd" clip-rule="evenodd" d="M99.6127 79.9417L116.215 86.1359L118.918 76.6526L99.6127 79.9417Z" fill="#FEFEFE"/>
<path fill-rule="evenodd" clip-rule="evenodd" d="M99.6127 79.9413L116.215 73.7471L118.918 83.3307L99.6127 79.9413Z" fill="#FEFEFE"/>
<path fill-rule="evenodd" clip-rule="evenodd" d="M111.67 60.9746V80.9432H120.409L111.67 60.9746Z" fill="#FEFEFE"/>
<path fill-rule="evenodd" clip-rule="evenodd" d="M111.67 60.9746L121.973 77.1532L114.899 82.9302L111.67 60.9746Z" fill="#FEFEFE"/>
<path fill-rule="evenodd" clip-rule="evenodd" d="M111.67 99.0085L121.973 82.8297L114.899 76.9526L111.67 99.0085Z" fill="#FEFEFE"/>
<path fill-rule="evenodd" clip-rule="evenodd" d="M111.67 99.0089V78.9399H120.409L111.67 99.0089Z" fill="#FEFEFE"/>
<path fill-rule="evenodd" clip-rule="evenodd" d="M131.239 68.2712L114.636 74.3487L117.34 83.832L131.239 68.2712Z" fill="#FEFEFE"/>
<path fill-rule="evenodd" clip-rule="evenodd" d="M131.239 68.2712L120.921 84.4331L113.847 78.5395L131.239 68.2712Z" fill="#FEFEFE"/>
<path fill-rule="evenodd" clip-rule="evenodd" d="M131.239 91.7126L120.921 75.5505L113.847 81.4444L131.239 91.7126Z" fill="#FEFEFE"/>
<path fill-rule="evenodd" clip-rule="evenodd" d="M131.239 91.7126L114.636 85.5349L117.34 76.0515L131.239 91.7126Z" fill="#FEFEFE"/>
</svg>
