<svg width="240" height="160" viewBox="0 0 240 160" fill="none" xmlns="http://www.w3.org/2000/svg">
<g clip-path="url(#clip0_1055_745)">
<rect width="240" height="160" rx="20" fill="white"/>
<path d="M0 0.00683594H80.0091V160.017H0V0.00683594Z" fill="white"/>
<path d="M80.0029 0H240V160.011H80.0029V0Z" fill="#02411D"/>
<path d="M199.889 96.0709C199.842 96.038 199.785 96.0228 199.728 96.028C199.672 96.0331 199.618 96.0583 199.578 96.099C198.969 96.7215 198.34 97.3235 197.691 97.9042C190.762 104.075 181.806 107.484 172.527 107.483C167.17 107.481 161.874 106.346 156.987 104.153C152.1 101.96 147.733 98.7571 144.171 94.7559C137.454 87.183 134.069 77.4544 134.669 67.3384C135.263 57.2364 139.755 47.9681 147.327 41.2429C147.914 40.7193 148.554 40.1888 149.354 39.5686C149.401 39.5353 149.433 39.486 149.446 39.4301C149.459 39.3742 149.45 39.3157 149.423 39.2655C149.397 39.214 149.354 39.1732 149.301 39.1505C149.248 39.1278 149.189 39.1247 149.134 39.1417C131.706 44.7092 120.008 60.7308 120.008 79.0259C120.008 102.117 138.786 120.894 161.875 120.894C178.227 120.894 193.188 111.268 199.982 96.3784C200.02 96.2633 199.991 96.1394 199.889 96.0709Z" fill="white"/>
<path d="M166.089 63.9258L175.764 66.042L176.736 75.9023C176.75 76.006 176.825 76.0956 176.929 76.1158C176.944 76.1228 176.963 76.1228 176.984 76.1228C177.025 76.1222 177.066 76.1112 177.101 76.0907C177.137 76.0703 177.167 76.0412 177.189 76.006L182.198 67.4615L191.866 69.5768C191.884 69.5818 191.903 69.5842 191.922 69.5838H191.937C191.969 69.584 192.002 69.5778 192.032 69.5654C192.062 69.5531 192.089 69.5348 192.112 69.5118C192.135 69.4887 192.154 69.4613 192.166 69.4312C192.178 69.401 192.185 69.3687 192.184 69.3361C192.182 69.2958 192.171 69.2566 192.152 69.221C192.133 69.1854 192.107 69.1543 192.075 69.1297L185.529 61.7702L190.537 53.2327C190.564 53.1877 190.576 53.1354 190.571 53.0834C190.566 53.0313 190.545 52.9822 190.51 52.9428C190.476 52.904 190.43 52.877 190.38 52.8658C190.329 52.8546 190.277 52.8598 190.229 52.8805L181.153 56.8501L174.574 49.4564C174.542 49.4166 174.497 49.3884 174.448 49.3758C174.398 49.3633 174.346 49.3672 174.299 49.387C174.25 49.4067 174.209 49.4415 174.182 49.4863C174.155 49.5311 174.143 49.5834 174.148 49.6356L175.117 59.4889L166.042 63.4585C165.995 63.4811 165.957 63.518 165.932 63.5638C165.908 63.6096 165.899 63.6619 165.906 63.7133C165.911 63.816 165.985 63.9056 166.089 63.9258Z" fill="white"/>
</g>
<defs>
<clipPath id="clip0_1055_745">
<rect width="240" height="160" rx="20" fill="white"/>
</clipPath>
</defs>
</svg>
