<svg width="240" height="160" viewBox="0 0 240 160" fill="none" xmlns="http://www.w3.org/2000/svg">
<path fill-rule="evenodd" clip-rule="evenodd" d="M240 141.104V18.8961C238.86 8.25051 230.819 0 221.215 0H18.7854C9.16608 0 1.12566 8.25051 0 18.8961V141.104C1.14028 151.65 9.1807 160 18.7854 160H221.2C230.819 160 238.86 151.633 240 141.104Z" fill="#CD0F19"/>
<path fill-rule="evenodd" clip-rule="evenodd" d="M23.0686 57.8691L27.5275 41.9507L15.73 32.0036H30.422L34.9539 16.002L39.5004 32.0036H54.1925L42.3951 41.9507L46.8391 57.8691L34.9539 48.0219L23.0686 57.8691Z" fill="#F7E300"/>
<path fill-rule="evenodd" clip-rule="evenodd" d="M63.9728 66.5182L68.9577 68.7972L72.3641 64.123L72.0132 70.1944L76.9982 72.4899L71.75 73.9703L71.3992 80.0414L68.5193 74.8684L63.3587 76.3655L66.7795 71.6915L63.9728 66.5182Z" fill="#F7E300"/>
<path fill-rule="evenodd" clip-rule="evenodd" d="M90.8132 35.7961L85.5649 34.7981L83.0358 40.1707L82.3341 34.0994L76.9982 33.0017L81.8079 30.4234L81.1062 24.3521L84.7756 28.7267L89.5851 26.0487L87.1438 31.4047L90.8132 35.7961Z" fill="#F7E300"/>
<path fill-rule="evenodd" clip-rule="evenodd" d="M79.615 63.1418L81.2816 57.3697L76.9982 53.6937H82.3341L83.9861 47.9219L85.6527 53.6937H90.9887L86.7052 57.3697L88.2695 63.1418L83.9861 59.5488L79.615 63.1418Z" fill="#F7E300"/>
<path fill-rule="evenodd" clip-rule="evenodd" d="M64.2358 10.1304L69.1331 12.7252L72.7149 8.23413L72.1008 14.3055L76.9106 16.9002L71.6622 18.0812L71.0483 24.1525L68.4315 18.7799L63.1833 19.9774L66.8673 15.5031L64.2358 10.1304Z" fill="#F7E300"/>
</svg>
