<svg width="240" height="160" viewBox="0 0 240 160" fill="none" xmlns="http://www.w3.org/2000/svg">
<path fill-rule="evenodd" clip-rule="evenodd" d="M15.6432 160H224.357C232.485 158.397 238.947 150.817 240 141.334V18.6663C238.947 9.18282 232.485 1.60284 224.357 0H15.6432C7.51455 1.60284 1.05263 9.18282 0 18.6663V141.334C1.05263 150.817 7.51455 158.397 15.6432 160Z" fill="#006C35"/>
<path fill-rule="evenodd" clip-rule="evenodd" d="M67.9096 45.3969C67.6464 49.0867 67.3833 55.6819 70.1757 56.3831C73.4944 56.6837 71.6669 49.8882 72.8804 48.6026C73.0558 48.0016 73.4944 48.0016 73.5821 48.803V54.5965C73.4944 56.4999 74.6347 57.0843 75.4242 57.3849C76.3891 57.3849 76.9155 57.3848 77.2663 58.3866C77.4418 61.7759 77.5294 65.0819 77.7048 68.4712C77.7048 68.4712 79.7077 69.1724 79.8832 62.7777C79.9709 59.0878 79.1815 55.9823 79.6201 55.1976C79.6201 54.4963 80.4095 54.4964 81.0236 54.8971C81.9008 55.5984 82.2517 56.3998 83.6406 56.0992C85.7312 55.398 86.9593 54.2961 86.9593 52.4094C86.8716 50.7064 86.6962 48.9199 86.0822 47.2169C86.1699 46.9164 85.6434 46.1148 85.7311 45.8143C86.082 46.4153 86.6962 46.4153 86.7839 45.8143C86.433 44.4118 85.9066 43.2265 85.0294 42.6254C84.2399 41.9242 83.1874 42.0243 82.7634 43.6272C82.588 45.3302 83.3774 47.5174 84.5177 49.2204C84.7809 49.9216 85.0441 51.0236 84.9564 52.0087C84.3424 52.4094 83.7282 52.2091 83.2019 51.608C83.2019 51.608 81.5352 50.2055 81.5352 49.905C81.9738 46.716 81.623 46.3152 81.4476 45.4136C81.2722 44.2115 80.7458 43.8108 80.3072 43.0094C79.8686 42.4084 79.3423 42.4084 79.0792 43.0094C78.2897 44.4119 78.6405 47.5008 79.1668 48.9032C79.6054 50.2056 80.1319 51.0068 79.8687 51.0068C79.6933 51.708 79.1668 51.5078 78.816 50.7064C78.3774 49.0034 78.2897 46.4154 78.2897 45.2132C78.1142 43.8108 77.9387 40.7221 77.1493 39.9207C76.6229 39.2194 75.8335 39.5199 75.5704 40.3214C75.5704 41.7238 75.5705 43.1095 75.6582 44.4119C76.2722 46.7159 76.4476 48.803 76.7108 51.1071C76.7985 54.296 75.1318 52.5096 75.2195 50.9067C75.5704 48.9032 75.4826 45.7142 75.1317 44.9128C74.8686 44.0112 74.5178 43.911 73.8161 44.0112C73.2897 43.911 71.974 45.6139 71.6377 48.5024C71.6377 48.5024 71.2867 49.905 71.1112 51.1906C70.9358 52.5931 70.1464 53.6784 69.5324 50.9903C69.0499 49.0034 68.7868 44.2114 67.9096 45.3969Z" fill="#FEFEFE"/>
<path fill-rule="evenodd" clip-rule="evenodd" d="M77.0907 60.6738C74.1229 62.3768 71.2281 63.8628 68.2603 65.4656C68.4357 63.2617 72.4562 59.1712 75.2486 59.071C77.003 59.1712 76.5644 59.8724 77.0907 60.6738Z" fill="#FEFEFE"/>
<path fill-rule="evenodd" clip-rule="evenodd" d="M84.0789 60.474C84.3421 60.474 84.6928 60.5742 84.8683 61.0751C85.0437 61.4758 84.8683 61.8765 84.6928 62.0768C84.6051 62.3773 84.1665 62.2772 83.9033 62.2772C83.5524 62.2772 83.377 62.1771 83.2016 61.7764C83.1139 61.4759 83.3771 61.1753 83.4648 60.8747C83.4648 60.8747 83.4647 60.8747 83.5524 60.8747V60.7747C83.7279 60.6745 83.8158 60.5742 84.0789 60.474ZM88.187 39.5202C88.0116 39.5202 87.8361 39.7207 87.6607 39.7207C86.959 40.0213 86.2572 40.7224 86.5203 42.1082C87.3098 47.9018 87.8361 52.3932 88.6987 58.2869C88.8741 58.9882 88.3478 59.8896 87.6461 59.7894C86.5934 58.8878 86.3303 57.2015 84.4151 57.3017C83.0116 57.3017 81.4473 59.0049 81.2718 60.591C81.0964 61.8933 81.0087 63.3792 81.2718 64.4812C82.2367 65.7835 83.4502 65.6834 84.4151 65.3828C85.2046 64.9821 85.9064 63.9802 86.2573 64.1805C86.4327 64.5813 86.1694 67.6702 82.3244 69.9743C79.9706 71.1764 78.0408 71.5771 76.9881 69.273C76.3741 67.8705 77.0758 62.5777 75.4969 63.7799C70.8624 77.4541 86.3303 79.3574 87.9969 64.3809C88.1724 63.9802 88.5232 63.5796 88.6987 63.6798C88.8741 63.6798 88.9619 63.88 88.9619 64.1805C88.611 77.6544 76.9882 78.5562 75.0584 74.3654C74.5321 73.3636 74.4444 71.1764 74.3566 69.774C74.2689 68.9725 74.0934 68.4716 73.918 68.2712C73.3917 67.9707 72.7777 68.9725 72.69 70.759C72.4268 72.2616 72.5145 72.6623 72.5145 74.0481C73.1286 84.7337 87.9824 80.1422 90.4385 71.36C91.6666 66.7685 90.4384 63.3793 90.877 62.8784H90.9648C92.456 64.6816 94.459 63.0786 94.9853 62.4775C95.1607 62.177 95.5994 61.9767 95.9503 62.3774C97.0906 63.3792 99.1812 62.8784 99.5321 61.1753C99.7952 59.5725 100.058 57.8862 100.058 56.1832C99.2689 56.3835 98.6549 56.5838 98.4795 56.8843C98.3917 56.9845 98.3918 57.0847 98.304 57.1849C98.304 57.5856 98.2163 58.0865 98.1286 58.5874C98.1286 58.6875 98.1286 58.6875 98.1286 58.7877C98.1286 58.7877 98.0409 58.7878 97.9532 58.888C97.69 59.0883 97.2513 58.888 97.2513 58.4873C96.9004 56.6841 95.4092 56.3835 94.5466 59.2887C93.9326 59.7896 92.7922 59.8897 92.7045 59.0883C92.8799 57.1849 92.1783 56.8844 90.7748 57.786C90.3362 53.9959 89.8975 50.306 89.4589 46.4993C90.073 46.4993 90.5115 47.0002 91.0378 46.2989C90.5115 44.1952 89.2834 40.1046 88.684 39.8041C88.5963 39.7039 88.5963 39.7039 88.5086 39.6037C88.5086 39.6037 88.5087 39.6037 88.421 39.6037C88.421 39.6037 88.421 39.6038 88.421 39.5037C88.3625 39.5204 88.2747 39.5202 88.187 39.5202Z" fill="#FEFEFE"/>
<path fill-rule="evenodd" clip-rule="evenodd" d="M98.4212 41.0059C98.6843 40.9057 98.9475 41.3064 99.1229 41.6069C99.2983 42.1078 99.2106 42.5087 98.9475 42.6089C98.6843 42.6089 98.3334 42.4084 98.1579 41.9076C97.9825 41.5068 98.0704 41.1061 98.3336 41.0059C98.3336 41.0059 98.3335 41.0059 98.4212 41.0059ZM98.5966 39.2195C98.2457 39.3197 97.8072 39.4197 97.544 39.5199C96.7545 40.4215 96.5791 41.724 97.1932 42.6089C97.8072 42.9094 98.4211 43.6105 97.9825 43.911C96.3158 45.9146 92.0322 49.3039 91.7837 50.0052H91.8715C92.0469 50.2055 94.7516 50.2056 95.1024 50.1055V50.0052C95.9796 49.6045 100.439 43.911 100.439 43.911C100.176 43.7107 100 43.5103 99.737 43.31C99.4738 43.1096 99.5616 42.8092 99.737 42.6089C100.79 41.8074 100.526 40.2211 99.9124 39.5199C99.4592 39.3195 99.0352 39.2195 98.5966 39.2195Z" fill="#FEFEFE"/>
<path fill-rule="evenodd" clip-rule="evenodd" d="M68.611 70.358C66.9443 73.3466 66.7689 77.7377 67.7338 79.1402C68.1724 79.7413 68.9619 80.0417 69.576 79.8413C70.6286 79.3405 71.0671 76.9529 70.804 76.0513C70.4531 75.4502 70.1899 75.35 69.839 75.8509C69.1373 77.5539 68.7864 76.3518 68.7864 75.4502C68.611 73.647 68.7864 72.0609 68.9619 70.6584C69.1373 69.3561 68.9619 69.7569 68.611 70.358Z" fill="#FEFEFE"/>
<path fill-rule="evenodd" clip-rule="evenodd" d="M138.889 65.5663C137.31 61.5759 135.131 57.7857 134.43 56.2831C133.728 54.7804 128.392 45.9982 127.617 44.9964C125.95 42.6923 130.409 45.9982 127.09 41.3066C125.775 40.1044 125.687 40.0043 124.649 39.0025C124.123 38.5016 122.807 37.8003 122.558 39.1026C122.471 40.2045 122.558 40.9059 122.734 41.7908C122.821 42.4921 123.699 43.5939 124.05 44.1783C129.474 52.4596 134.181 60.7411 138.816 71.2263C139.503 70.859 139.327 66.1673 138.889 65.5663Z" fill="#FEFEFE"/>
<path fill-rule="evenodd" clip-rule="evenodd" d="M131.886 78.6394C131.623 79.0401 132.676 80.7431 134.065 80.7431C136.418 80.4426 138.524 78.94 140.439 74.9496C140.965 73.9478 141.842 72.061 141.93 70.4582C142.106 61.3754 141.492 54.3797 140.351 47.9016C140.263 47.2003 140.263 46.4991 140.351 46.2988C140.527 46.0984 141.053 46.2987 141.316 45.7978C141.755 45.2969 140.263 41.4069 139.386 39.9042C139.123 39.2029 139.035 38.8021 138.509 40.0043C137.983 40.9059 137.632 42.6924 137.72 44.195C138.772 53.0774 139.123 60.9581 139.898 69.7404C139.898 70.642 139.81 71.9442 139.284 72.4284C137.486 74.649 134.869 77.3538 131.886 78.6394Z" fill="#FEFEFE"/>
<path fill-rule="evenodd" clip-rule="evenodd" d="M163.801 78.5395C162.047 79.6414 162.047 80.927 163.45 81.0272C165.804 80.6265 168.611 80.426 170.526 77.1369C171.052 76.2353 171.667 73.6474 171.667 72.1447C171.842 63.1621 171.579 54.2798 170.439 47.7849C170.351 47.0837 170.088 45.6812 170.175 45.4808C170.351 44.98 171.053 45.4808 171.316 44.9799C171.754 44.5792 169.386 40.9896 168.523 39.487C168.26 38.7857 168.172 38.3849 167.646 39.587C167.12 40.5888 166.944 42.2752 167.12 43.8781C168.436 53.4617 169.298 62.845 169.474 71.4269C169.386 72.2283 169.386 72.7291 169.035 73.6307C168.333 74.8328 167.456 76.1184 166.769 76.7194C165.979 77.4541 164.313 78.0386 163.801 78.5395Z" fill="#FEFEFE"/>
<path fill-rule="evenodd" clip-rule="evenodd" d="M165.015 69.8569C165.015 67.653 165.103 65.6661 165.015 63.9631C164.927 62.3603 164.225 55.9824 164.05 54.6801C163.787 53.2776 163.611 51.1905 163.26 49.5877C163.173 48.9866 162.822 46.8996 162.997 46.6993C163.085 46.2986 163.611 46.7994 163.874 46.1983C164.313 45.6974 162.559 40.6051 161.696 39.1191C161.345 38.518 160.731 38.7185 160.029 39.8204C159.415 40.5217 159.679 42.1245 159.854 43.6105C161.608 53.695 162.822 64.2804 162.559 73.8474C162.486 74.6488 165.103 71.4598 165.015 69.8569Z" fill="#FEFEFE"/>
<path fill-rule="evenodd" clip-rule="evenodd" d="M152.515 57.3849C151.462 57.3849 149.284 54.9974 148.582 53.6951C148.319 52.8936 148.494 52.0921 148.758 51.6914C149.108 51.3909 149.722 50.9903 150.161 51.391C150.161 51.391 150.687 52.0922 150.6 52.1924C151.126 52.4929 151.389 52.2925 151.477 51.992C151.477 51.5913 151.301 51.2906 151.301 50.7897C151.565 49.3872 152.968 49.187 153.48 50.0886C153.831 50.5895 154.006 51.6914 154.094 52.5763C154.094 52.9771 153.48 52.4762 153.129 52.5763C152.866 52.6765 152.778 53.0773 152.69 53.478C152.69 54.4798 152.602 56.1827 152.515 57.3849Z" fill="#FEFEFE"/>
<path fill-rule="evenodd" clip-rule="evenodd" d="M132.938 72.4618C133.202 69.373 132.763 63.0784 132.763 61.2752C132.675 56.9842 132.061 48.7029 131.798 47.3004C131.447 44.7125 132.675 47.601 132.5 46.0984C132.061 43.5104 130.833 41.7073 129.357 39.3031C128.918 38.6018 128.918 38.4015 128.128 39.5034C127.339 41.6071 128.041 43.093 128.216 44.796C129.357 50.1889 129.971 55.0808 130.234 59.9728C130.585 64.8648 130.585 70.9591 130.321 76.1516C131.199 76.1516 132.412 74.649 132.938 72.4618Z" fill="#FEFEFE"/>
<path fill-rule="evenodd" clip-rule="evenodd" d="M168.684 67.4692C166.842 63.8795 163.962 59.6887 163.172 58.186C162.471 56.7835 156.009 46.1147 155.219 45.1129C152.865 42.3247 156.272 44.7123 154.781 42.4249C153.465 40.822 153.114 40.3211 151.988 39.4362C151.462 39.0355 151.111 38.2339 150.936 39.5363C150.848 40.7384 150.76 42.0241 150.848 43.0259C150.848 43.627 151.374 44.6287 151.813 45.2297C157.5 53.2105 163.699 62.8943 168.684 73.1792C169.386 72.7618 169.123 68.0703 168.684 67.4692Z" fill="#FEFEFE"/>
<path fill-rule="evenodd" clip-rule="evenodd" d="M147.105 117.174C147.105 117.174 147.105 117.174 147.193 117.174C149.722 117.274 152.091 117.174 154.708 117.275C155.058 117.775 154.883 118.677 154.62 118.777H154.532H154.444C153.655 118.777 153.216 118.777 152.354 118.777C152.354 118.677 152.354 118.677 152.354 118.577C152.091 117.976 150.687 117.976 150.336 118.577C150.336 118.577 150.336 118.577 150.336 118.677V118.777C149.196 118.877 148.158 118.777 147.017 118.677C146.754 118.176 146.754 117.375 147.105 117.174ZM145.965 109.978C144.298 110.379 144.298 112.366 145.439 113.267C127.865 113.267 100.95 112.967 95.1754 112.967C91.9444 112.967 81.7104 112.466 81.5349 112.466C83.7133 116.156 86.8712 116.857 91.0671 116.957C98.8449 116.957 134.941 116.857 145.175 116.857C144.474 118.36 145.263 120.647 145.877 121.148C145.877 121.148 145.877 121.148 145.965 121.148C146.667 121.348 146.93 120.848 147.193 120.447C148.246 120.547 154.444 120.647 155.058 120.347C155.497 121.048 155.848 121.649 156.55 121.549C157.865 121.248 158.903 121.048 158.903 118.059C158.903 118.059 158.728 113.067 155.848 113.368C155.146 113.468 153.231 113.668 153.231 113.668C151.053 113.368 149.386 113.368 146.857 113.267C147.12 112.967 147.471 111.564 147.032 111.064C146.857 110.963 146.681 110.863 146.418 110.863H146.33C146.33 110.863 146.33 110.863 146.33 110.763C146.14 110.679 146.053 110.078 145.965 109.978Z" fill="#FEFEFE"/>
<path fill-rule="evenodd" clip-rule="evenodd" d="M101.564 42.3083C99.8976 47.9016 102.529 53.979 104.444 53.3947C105.76 53.9957 106.623 51.0905 107.149 47.9015C107.588 46.9999 107.851 46.8998 108.026 47.3005C107.938 51.5914 108.289 52.5933 109.254 53.8956C111.345 55.6988 113.187 54.096 113.275 53.8956C113.45 53.7955 114.942 51.9922 114.942 51.9922C115.292 51.5915 115.819 51.5915 116.345 51.9922C116.871 52.4931 116.784 53.3946 117.924 53.9957C118.801 54.4966 120.716 54.0959 121.243 53.1943C121.857 51.9922 121.944 51.5916 122.208 51.1909C122.734 50.4896 123.436 50.7901 123.436 50.9905C123.348 51.3912 122.909 51.6917 123.26 52.3929C123.786 52.8938 123.874 52.5932 124.225 52.493C125.278 51.8919 126.067 49.2039 126.067 49.2039C126.155 48.2021 125.629 48.3022 125.278 48.5026C124.927 48.8031 124.839 48.9034 124.488 49.2039C123.962 49.2039 122.909 49.6045 122.398 48.7029C121.871 47.7011 121.871 46.1151 121.433 45.0131C121.433 45.0131 120.819 43.3102 121.433 43.21C121.784 43.3102 122.398 43.5105 122.573 42.8093C122.924 42.2082 121.784 40.3215 121.082 39.4199C120.468 38.6185 119.591 38.5182 118.728 39.3196C118.114 40.0209 118.202 40.7223 118.114 41.3233C117.938 42.1247 118.026 43.0263 118.64 44.0114C119.254 45.4139 120.395 47.1003 119.956 49.5045C119.956 49.5045 119.342 50.6064 118.289 50.5062C117.851 50.4061 117.061 50.2058 116.623 46.8164C116.36 44.3287 116.71 40.7222 115.746 39.136C115.395 38.0341 115.219 37.0324 114.342 38.8356C114.167 39.5368 113.202 40.5386 113.903 42.6257C114.43 43.928 114.693 46.115 114.43 48.5193C113.991 49.2205 113.903 49.5211 113.377 50.2223C112.675 51.0238 111.886 50.8235 111.287 50.523C110.76 50.0221 110.322 49.8216 110.058 48.5193C110.058 46.2152 110.146 42.7258 109.795 41.9244C109.357 40.7222 108.479 41.123 108.129 41.5237C106.374 43.3269 105.512 46.4157 104.985 48.9035C104.459 50.7067 103.933 50.2057 103.582 49.4042C102.705 48.5026 102.617 41.1062 101.564 42.3083Z" fill="#FEFEFE"/>
<path fill-rule="evenodd" clip-rule="evenodd" d="M112.661 67.6698H112.749C113.889 67.9704 115.541 68.0704 116.945 68.1706C118.085 68.2708 118.699 69.2727 117.646 69.7736C116.506 70.1743 115.468 70.4748 115.468 72.2613C115.643 73.1629 115.643 73.6636 115.468 73.7638C115.468 73.864 115.468 73.8641 115.468 73.8641V73.9641H115.38H115.293C115.029 74.0643 114.679 73.6636 114.415 73.5635C113.714 72.9624 111.886 71.7604 111.623 68.8719C111.608 68.2709 111.959 67.6698 112.661 67.6698ZM121.93 57.9859C122.193 57.9859 122.456 58.0861 122.719 58.1863C123.158 58.4868 123.421 58.8875 123.333 59.188V59.2883C123.333 59.2883 123.333 59.3884 123.246 59.3884C123.07 59.5887 122.632 59.5888 122.193 59.2883C121.842 58.9878 121.579 58.587 121.579 58.3866V58.2866L121.667 58.1863C121.667 58.0861 121.667 58.0862 121.754 58.0862C121.754 57.986 121.842 57.9859 121.93 57.9859ZM107.339 53.7952C107.339 53.8953 107.339 53.8954 107.339 53.8954H107.252C107.164 53.9956 106.988 54.1959 106.725 54.3962C106.199 55.0974 106.111 55.5984 106.199 56.7839C106.199 56.9842 107.076 59.8726 107.865 61.9764C108.392 64.1803 108.918 66.5678 108.567 68.8719C107.339 71.9607 104.81 74.6655 102.456 76.1515C101.228 76.6523 100.19 76.452 99.927 76.1515C99.2252 75.6506 99.1376 74.6488 99.2253 74.4484C101.243 72.8456 103.597 71.5601 105.336 67.2691C105.863 65.5661 106.038 64.581 105.512 61.9764C105.336 61.0748 105.073 60.2733 104.459 59.5887H104.547C104.81 59.3884 105.775 60.1899 105.863 59.689C105.687 58.3867 104.985 56.8006 104.108 55.9992C103.407 55.1978 102.617 55.0974 101.93 55.7986C101.228 56.2995 101.053 58.0027 101.404 59.4886C101.842 60.5906 102.895 60.7909 103.67 62.9781C103.67 63.1785 103.933 64.6812 103.494 65.3657C103.231 66.4677 99.2106 70.0573 98.9474 70.2576H98.8598C98.8598 70.1575 98.8598 69.9572 98.8598 69.5565C98.7721 68.9555 99.0352 67.3524 99.0352 67.0686C97.7194 68.0704 97.1931 71.0591 97.0177 71.9607C93.6112 74.5486 89.8539 76.5521 87.6609 79.2402C86.5205 81.2438 95.5264 76.8527 96.579 76.3518C96.579 76.3518 96.579 76.3519 96.579 76.4521C96.7544 76.6524 96.7545 77.4538 97.3685 78.2552C98.3334 79.7579 100.336 80.6428 102.266 80.1586C105.497 78.7561 107.427 76.2684 109.342 73.4634C109.605 72.9625 110.044 72.6619 110.395 72.9624C111.711 76.3518 115.468 78.656 120.366 78.9565C121.506 77.3537 120.98 76.5688 120.541 76.2682C120.366 76.1681 118.099 75.1663 117.749 74.1645C117.485 73.1627 118.012 72.3614 119.152 71.777C122.295 71.2762 125.351 70.7753 128.333 69.6733C128.333 68.5714 128.948 66.885 129.386 66.0836C129.649 65.5827 129.825 65.5827 129.912 65.4825V65.3825L129.386 64.9816H119.328C119.24 64.8814 119.152 64.7812 119.064 64.7812V64.6811V64.5809C119.064 64.4807 119.24 64.3805 119.328 64.3805C121.769 63.9798 125.965 63.1786 126.316 58.4869C126.228 56.0993 125.351 54.4965 122.734 54.0958C120.804 54.2961 119.503 56.3999 119.678 58.6873C119.591 59.2883 119.854 60.5905 119.328 60.6907C115.658 61.0914 111.638 63.6794 111.462 65.5828V65.6829C111.462 65.6829 111.462 65.6829 111.374 65.6829V65.5828C111.111 65.5828 110.76 65.0819 110.848 64.4808C110.673 61.1916 109.795 57.5018 108.319 54.6968C107.792 54.0958 107.617 53.8953 107.442 53.7952H107.339Z" fill="#FEFEFE"/>
<path fill-rule="evenodd" clip-rule="evenodd" d="M80.4971 42.4085C81.6375 43.0095 83.8158 42.7089 83.728 40.6051C83.728 40.4048 83.728 39.8038 83.728 39.6034C83.4649 39.0023 82.7632 39.1025 82.6755 39.8038C82.5877 40.0041 82.7633 40.3046 82.5878 40.4048C82.5001 40.505 82.0614 40.5051 82.1492 39.904C82.1492 39.7037 81.9738 39.5032 81.8861 39.4031C81.8861 39.3029 81.7983 39.303 81.6229 39.303C81.5351 39.303 81.5352 39.303 81.4474 39.5033C81.3597 39.7037 81.3596 39.8038 81.3596 40.0041C81.3596 40.2045 81.272 40.3047 81.0966 40.3047C81.0088 40.3047 81.0088 40.3046 80.8333 40.2045C80.8333 40.1043 80.6579 40.1043 80.6579 40.0041C80.6579 39.8038 80.6579 39.5032 80.6579 39.4031C80.5702 39.3029 80.4826 39.303 80.3948 39.303C79.6931 39.303 79.6931 40.1043 79.6931 40.4048C79.7077 40.5217 79.6199 41.9076 80.4971 42.4085Z" fill="#FEFEFE"/>
<path fill-rule="evenodd" clip-rule="evenodd" d="M114.328 58.687C115.468 59.2881 118.173 58.9874 117.559 56.8837C117.559 56.6833 117.471 56.0823 117.471 55.882C117.208 55.2809 116.594 55.4812 116.418 56.0823C116.418 56.2827 116.506 56.6835 116.331 56.7836C116.243 56.8838 115.892 56.7837 115.892 56.1826C115.892 55.9822 115.804 55.7818 115.716 55.6816C115.629 55.6816 115.629 55.6816 115.453 55.6816C115.278 55.6816 115.278 55.6816 115.19 55.882C115.19 55.9821 115.103 56.1826 115.103 56.3829C115.103 56.5833 115.015 56.5832 114.839 56.6834C114.752 56.6834 114.752 56.6835 114.664 56.5833C114.576 56.4831 114.488 56.483 114.488 56.2827C114.488 56.1825 114.489 55.8821 114.401 55.7819C114.313 55.6817 114.225 55.6817 114.138 55.5815C113.524 55.5815 113.436 56.3829 113.523 56.7836C113.45 56.7836 113.45 58.2863 114.328 58.687Z" fill="#FEFEFE"/>
<path fill-rule="evenodd" clip-rule="evenodd" d="M133.991 51.8921C135.131 52.5934 137.31 52.2928 137.222 50.1891C137.222 49.9887 137.134 49.3877 137.134 49.1873C136.871 48.4861 136.257 48.6864 136.169 49.3877C136.082 49.4878 136.169 49.8885 135.994 49.9887C135.906 50.0889 135.555 50.089 135.555 49.4879C135.555 49.2876 135.468 49.0873 135.38 48.8869C135.292 48.8869 135.292 48.8869 135.117 48.8869C135.029 48.8869 134.941 48.8869 134.854 49.0873C134.854 49.2876 134.766 49.3877 134.766 49.588C134.766 49.7884 134.678 49.8886 134.591 49.8886C134.415 49.8886 134.415 49.8885 134.327 49.7884C134.24 49.7884 134.152 49.6883 134.152 49.4879C134.152 49.3878 134.152 49.0872 134.064 48.987C134.064 48.8868 133.889 48.8869 133.801 48.8869C133.187 48.8869 133.099 49.6882 133.187 49.9887C133.114 50.0889 133.114 51.4914 133.991 51.8921Z" fill="#FEFEFE"/>
<path fill-rule="evenodd" clip-rule="evenodd" d="M144.211 68.8551C142.193 71.443 143.07 75.7507 143.509 76.6356C144.211 78.1383 144.737 79.1232 145.951 79.8245C147.179 80.9264 148.041 80.2253 148.568 79.524C149.708 78.1216 149.796 74.6321 150.322 73.9308C150.761 72.6285 151.726 72.8288 152.164 73.4299C152.603 74.1311 153.217 74.6319 153.831 75.0326C154.971 76.1346 156.272 76.335 157.588 75.3333C158.465 74.8324 159.079 74.031 159.518 72.6452C160.132 70.842 159.781 61.2583 159.693 56.4664C159.606 56.0657 158.553 49.7712 158.553 49.7712C158.553 49.671 158.377 46.5822 158.29 45.7808C158.29 45.4803 158.202 45.3802 158.465 45.4804C158.728 45.7809 158.816 45.7809 158.992 45.8811C159.255 45.8811 159.518 45.3801 159.343 44.7791C158.465 42.8757 157.5 40.889 156.638 39.0858C156.375 38.7853 156.111 38.4847 155.761 39.0858C155.41 39.3863 155.059 39.9872 155.059 40.7886C155.147 42.1911 155.41 43.5769 155.498 44.9794C155.848 47.2835 156.199 49.6711 156.55 51.9585C156.901 57.0509 156.989 61.6424 157.34 66.6346C157.34 68.7383 156.726 71.5266 156.199 71.8271C156.199 71.8271 155.322 72.4282 154.796 71.8271C154.357 71.6267 152.793 68.7381 152.793 68.7381C151.916 67.8365 151.389 68.0369 150.775 68.7381C149.196 70.5413 148.509 73.8306 147.369 76.1179C147.106 76.6188 146.316 77.1197 145.439 76.1179C143.173 72.6618 144.474 67.5695 144.211 68.8551Z" fill="#FEFEFE"/>
<path fill-rule="evenodd" clip-rule="evenodd" d="M134.518 39.62C135.57 40.1209 136.272 42.4083 136.009 43.6105C135.833 45.1131 135.307 46.6993 134.869 46.3988C134.43 46.1984 135.132 44.9961 134.781 43.7105C134.518 42.8089 133.114 41.323 133.29 40.8221C132.939 39.9205 133.904 39.4197 134.518 39.62Z" fill="#FEFEFE"/>
<path fill-rule="evenodd" clip-rule="evenodd" d="M147.544 70.3576C147.719 67.4692 147.369 65.6659 147.281 63.9629C147.193 62.36 145.614 48.5857 145.263 47.4003C144.912 45.0128 146.842 47.0997 146.667 45.597C145.965 43.894 144.313 41.3061 143.787 39.8034C143.436 39.1022 143.611 38.5011 142.822 39.6031C142.208 42.0908 141.944 43.9941 142.208 45.597C143.962 55.6815 145.614 64.8645 145.351 74.4481C146.14 74.4481 147.105 72.3612 147.544 70.3576Z" fill="#FEFEFE"/>
<path fill-rule="evenodd" clip-rule="evenodd" d="M165.102 43.0094C166.067 43.6104 166.594 46.4989 166.506 47.4005C166.33 49.0033 165.804 50.6895 165.453 50.389C165.102 50.2888 165.541 48.0849 165.366 47.5005C165.19 46.4988 163.874 44.8126 163.962 44.3117C163.713 43.3099 164.576 42.809 165.102 43.0094Z" fill="#FEFEFE"/>
<path fill-rule="evenodd" clip-rule="evenodd" d="M95.1902 64.8648C96.0674 65.2655 96.6815 67.4528 96.5061 68.0539C96.3306 69.256 95.892 70.4414 95.5411 70.3579C95.1902 70.1576 95.6287 68.6548 95.4533 68.1539C95.3656 66.9518 94.1375 66.3507 94.1375 65.8498C93.8743 64.9649 94.6639 64.7646 95.1902 64.8648Z" fill="#FEFEFE"/>
<path fill-rule="evenodd" clip-rule="evenodd" d="M71.1403 38.9187C72.4561 39.3194 72.5439 41.607 72.4561 42.208C72.2807 43.4102 71.8421 44.6958 71.4912 44.5121C71.1403 44.4119 71.4912 42.809 71.3157 42.3081C71.0526 41.5067 69.9123 40.3047 70.0877 39.9207C69.8392 39.1192 70.6286 38.7184 71.1403 38.9187Z" fill="#FEFEFE"/>
<path fill-rule="evenodd" clip-rule="evenodd" d="M97.3685 49.4043C96.3159 50.0053 95.9649 51.8921 96.579 52.994C97.193 53.9958 98.158 53.5951 98.2457 53.5951C99.2983 53.7954 99.8246 51.4913 99.8246 51.4913C99.8246 51.4913 99.9124 50.7901 98.6843 51.9923C98.158 52.1926 98.1579 51.8921 97.9824 51.5916C97.8947 50.9905 97.8947 50.3893 98.1579 49.7883C98.3333 49.3041 97.9826 49.0036 97.3685 49.4043Z" fill="#FEFEFE"/>
<path fill-rule="evenodd" clip-rule="evenodd" d="M104.971 38.0175C104.532 38.4182 103.48 39.6202 103.48 41.006C103.392 41.8074 103.304 41.8074 103.743 42.3083C104.094 42.8092 104.357 42.8093 105.059 42.4086C105.409 42.1081 105.585 41.8075 105.673 41.3066C105.848 40.405 104.883 41.7072 104.708 40.8056C104.532 39.8039 105.146 39.5033 105.76 38.5015C105.76 37.9172 105.76 37.5166 104.971 38.0175Z" fill="#FEFEFE"/>
<path fill-rule="evenodd" clip-rule="evenodd" d="M111.184 39.3195C110.921 39.8204 110.658 42.7089 110.746 42.7089C110.57 43.6105 111.535 44.0112 111.974 42.9092C112.675 40.8055 112.675 40.0207 112.675 39.1191C112.485 37.7166 111.696 37.8168 111.184 39.3195Z" fill="#FEFEFE"/>
<path fill-rule="evenodd" clip-rule="evenodd" d="M149.985 61.776C150.161 61.6758 155.497 57.3849 155.497 57.3849C156.023 57.0844 155.936 59.5887 155.672 59.5887C155.76 60.0896 150.336 64.1803 149.985 64.0801C149.722 64.2638 149.459 62.3771 149.985 61.776Z" fill="#FEFEFE"/>
<path fill-rule="evenodd" clip-rule="evenodd" d="M154.883 61.776C155.848 62.377 156.199 65.4658 156.111 66.3674C156.111 67.9703 155.146 69.3559 154.795 69.1556C154.444 68.9552 154.883 67.052 154.707 66.3674C154.444 65.4658 153.655 63.7796 153.742 63.2787C153.479 62.1767 154.269 61.5756 154.883 61.776Z" fill="#FEFEFE"/>
<path fill-rule="evenodd" clip-rule="evenodd" d="M123.158 75.35C123.509 74.7489 124.649 73.8472 124.649 73.8472C125.176 73.5467 125.702 74.0476 125.702 74.0476C125.79 74.6487 125.351 75.1496 125.526 75.951C125.614 76.3517 125.702 76.7524 126.228 76.552C127.018 75.7506 127.807 75.7506 128.67 75.7506C129.372 75.7506 129.371 76.9527 128.933 76.9527C127.354 77.3534 126.667 77.8543 125.526 78.3552C125 78.7559 124.562 78.255 124.562 78.1548C124.562 78.1548 124.298 77.8544 124.474 77.053C124.561 76.4519 124.298 76.0512 123.86 76.1513C123.421 76.3517 123.158 76.552 122.983 76.0511C122.895 75.7505 122.895 75.5503 123.158 75.35Z" fill="#FEFEFE"/>
<path fill-rule="evenodd" clip-rule="evenodd" d="M160.468 77.0529C160.731 77.3534 160.819 77.6538 160.468 78.1547C160.029 78.6555 159.854 78.856 159.415 79.2567C159.24 79.5572 159.152 80.058 159.678 80.2584C160.643 80.5589 162.997 78.856 162.997 78.856C163.348 78.5554 163.26 77.8542 163.173 77.8542C162.997 77.5537 162.471 77.754 162.208 77.754C162.032 77.754 161.506 77.6538 161.769 77.1529C161.944 76.7522 162.032 76.652 162.12 76.2513C162.295 75.8506 162.207 75.5502 161.593 75.3498C161.067 75.1495 160.804 75.2496 160.19 75.3498C159.839 75.45 159.751 75.6502 159.664 76.0509C159.693 76.7522 160.044 76.7523 160.468 77.0529Z" fill="#FEFEFE"/>
</svg>
