<svg width="240" height="160" viewBox="0 0 240 160" fill="none" xmlns="http://www.w3.org/2000/svg">
<path fill-rule="evenodd" clip-rule="evenodd" d="M2.01654 11.4858H237.983C235.28 5.59266 230.297 1.202 224.35 0H15.6502C9.71747 1.202 4.73451 5.59266 2.01654 11.4858Z" fill="#D70927"/>
<path fill-rule="evenodd" clip-rule="evenodd" d="M0.0146159 22.8544H240V18.6641C239.737 16.0765 239.036 13.6726 237.983 11.4856H2.01656C0.964438 13.6893 0.26303 16.0765 0 18.6641V22.8544H0.0146159Z" fill="#FEFEFE"/>
<path d="M240 22.8547H0.0146484V34.3406H240V22.8547Z" fill="#D70927"/>
<path d="M240 34.3403H0.0146484V45.7261H240V34.3403Z" fill="#FEFEFE"/>
<path d="M240 45.7092H0.0146484V57.1951H240V45.7092Z" fill="#D70927"/>
<path d="M240 57.1953H0.0146484V68.5809H240V57.1953Z" fill="#FEFEFE"/>
<path d="M240 68.564H0.0146484V80.0498H240V68.564Z" fill="#D70927"/>
<path d="M240 80.05H0.0146484V91.4358H240V80.05Z" fill="#FEFEFE"/>
<path d="M240 91.4358H0.0146484V102.821H240V91.4358Z" fill="#D70927"/>
<path d="M240 102.805H0.0146484V114.291H240V102.805Z" fill="#FEFEFE"/>
<path d="M240 114.291H0.0146484V125.676H240V114.291Z" fill="#D70927"/>
<path d="M240 125.659H0.0146484V137.145H240V125.659Z" fill="#FEFEFE"/>
<path fill-rule="evenodd" clip-rule="evenodd" d="M2.01659 148.514H237.983C239.036 146.31 239.737 143.923 240 141.335V137.145H0.0146484V141.335C0.277678 143.923 0.979083 146.327 2.01659 148.514Z" fill="#D70927"/>
<path fill-rule="evenodd" clip-rule="evenodd" d="M15.6503 160H224.35C230.297 158.798 235.265 154.407 237.983 148.514H2.0166C4.73457 154.407 9.71753 158.798 15.6503 160Z" fill="#FEFEFE"/>
<path fill-rule="evenodd" clip-rule="evenodd" d="M0.0146484 91.4357H139.961V0.0166016H15.6503C7.5256 1.71944 1.06677 9.19846 0.0146484 18.6809V91.4357Z" fill="#1E2F8F"/>
<path fill-rule="evenodd" clip-rule="evenodd" d="M37.4963 45.7097C37.4963 29.1487 49.2888 15.7596 63.7993 15.7596C68.7822 15.7596 73.5022 17.3623 77.5207 20.1503C72.187 14.758 65.2021 11.4692 57.5158 11.4692C41.0034 11.4692 27.545 26.8449 27.545 45.7097C27.545 64.6746 41.0034 80.0502 57.5158 80.0502C65.2021 80.0502 72.187 76.6612 77.5207 71.2688C73.5022 74.0568 68.7822 75.7598 63.7993 75.7598C49.2888 75.7598 37.4963 62.2873 37.4963 45.7097Z" fill="#F5D602"/>
<path fill-rule="evenodd" clip-rule="evenodd" d="M97.5109 45.7095L111.831 39.4324L96.5464 40.818L107.038 27.9466L93.7554 36.828L98.3877 20.0668L89.7369 34.6411L87.545 17.1787L85.8937 29.6495L85.4554 33.2388L85.28 34.6411L76.6293 20.0668L81.2615 36.828L67.9785 27.9466L78.4705 40.818L63.1709 39.4324L77.506 45.7095L63.1709 52.1035L78.4705 50.7012L67.9785 63.5893L81.2615 54.6912L76.6293 71.469L85.28 56.8948L85.4554 58.2973L85.8937 61.7864L87.545 74.3574L89.7369 56.8948L98.3877 71.469L93.7554 54.6912L107.038 63.5893L96.5464 50.7012L111.831 52.1035L97.5109 45.7095Z" fill="#F5D602"/>
</svg>
