<svg width="240" height="160" viewBox="0 0 240 160" fill="none" xmlns="http://www.w3.org/2000/svg">
<path fill-rule="evenodd" clip-rule="evenodd" d="M15.6375 160H224.363C232.488 158.396 238.948 150.811 240 141.422V18.5778C238.948 9.18867 232.488 1.60384 224.363 0H15.6375C7.5118 1.60384 1.13993 9.18867 0 18.5778V141.422C1.12532 150.811 7.5118 158.396 15.6375 160Z" fill="#FEFEFE"/>
<path fill-rule="evenodd" clip-rule="evenodd" d="M158.845 26.3633L167.746 41.6332L162.864 45.3253L153.95 30.0554L158.845 26.3633Z" fill="#070202"/>
<path fill-rule="evenodd" clip-rule="evenodd" d="M169.324 44.3396L178.239 59.6095L173.431 63.3184L164.516 48.0317L169.324 44.3396Z" fill="#070202"/>
<path fill-rule="evenodd" clip-rule="evenodd" d="M166.094 20.7666L185.575 54.1298L180.68 57.8219L161.286 24.4587L166.094 20.7666Z" fill="#070202"/>
<path fill-rule="evenodd" clip-rule="evenodd" d="M173.431 15.2703L182.346 30.5569L177.45 34.1489L168.535 18.9624L173.431 15.2703Z" fill="#070202"/>
<path fill-rule="evenodd" clip-rule="evenodd" d="M183.909 33.3464L192.824 48.533L187.928 52.2251L179.028 37.0388L183.909 33.3464Z" fill="#070202"/>
<path fill-rule="evenodd" clip-rule="evenodd" d="M66.657 96.5647L86.0651 129.928L81.1693 133.62L61.7758 100.374L66.657 96.5647Z" fill="#070202"/>
<path fill-rule="evenodd" clip-rule="evenodd" d="M59.3204 102.161L68.2352 117.448L63.4272 121.14L54.5123 105.853L59.3204 102.161Z" fill="#070202"/>
<path fill-rule="evenodd" clip-rule="evenodd" d="M69.8867 120.238L78.7139 135.525L73.9203 139.217L65.0055 123.93L69.8867 120.238Z" fill="#070202"/>
<path fill-rule="evenodd" clip-rule="evenodd" d="M52.0716 107.758L71.4651 141.021L66.6569 144.713L47.1758 111.45L52.0716 107.758Z" fill="#070202"/>
<path fill-rule="evenodd" clip-rule="evenodd" d="M61.7758 59.6096L81.1693 26.3633L86.0651 30.0554L66.657 63.3185L61.7758 59.6096Z" fill="#070202"/>
<path fill-rule="evenodd" clip-rule="evenodd" d="M54.5123 54.1298L73.9203 20.7666L78.7139 24.4587L59.3204 57.8219L54.5123 54.1298Z" fill="#070202"/>
<path fill-rule="evenodd" clip-rule="evenodd" d="M47.1758 48.5333L66.6569 15.2703L71.4651 18.9624L52.0716 52.2255L47.1758 48.5333Z" fill="#070202"/>
<path fill-rule="evenodd" clip-rule="evenodd" d="M153.95 129.928L162.864 114.642L167.746 118.35L158.845 133.62L153.95 129.928Z" fill="#070202"/>
<path fill-rule="evenodd" clip-rule="evenodd" d="M164.516 111.951L173.431 96.5647L178.239 100.374L169.324 115.543L164.516 111.951Z" fill="#070202"/>
<path fill-rule="evenodd" clip-rule="evenodd" d="M161.286 135.525L170.201 120.238L175.009 123.93L166.094 139.217L161.286 135.525Z" fill="#070202"/>
<path fill-rule="evenodd" clip-rule="evenodd" d="M171.765 117.448L180.68 102.161L185.575 105.853L176.661 121.14L171.765 117.448Z" fill="#070202"/>
<path fill-rule="evenodd" clip-rule="evenodd" d="M168.535 141.021L177.45 125.735L182.346 129.427L173.431 144.713L168.535 141.021Z" fill="#070202"/>
<path fill-rule="evenodd" clip-rule="evenodd" d="M179.028 122.944L187.928 107.758L192.824 111.45L183.909 126.637L179.028 122.944Z" fill="#070202"/>
<path fill-rule="evenodd" clip-rule="evenodd" d="M90.8587 57.8215C90.771 58.022 90.5956 58.2225 90.5079 58.4229C90.6833 58.2225 90.771 58.022 90.8587 57.8215Z" fill="#BB0E31"/>
<path fill-rule="evenodd" clip-rule="evenodd" d="M139.437 46.6286C123.361 34.4495 101.6 39.4447 90.8587 57.822C85.5244 66.9105 87.7165 79.3904 95.7545 85.5886C103.793 91.6865 114.622 89.1805 120.044 79.9919C125.378 70.8032 136.207 68.3139 144.245 74.3952C152.283 80.5933 154.461 92.973 149.142 102.162C159.796 83.7843 155.513 58.9081 139.437 46.6286Z" fill="#BB0E31"/>
<path fill-rule="evenodd" clip-rule="evenodd" d="M90.8587 57.8215C85.5243 66.91 87.7165 79.3899 95.7545 85.588C103.792 91.686 114.622 89.18 120.044 79.9913C125.378 70.8027 136.207 68.3134 144.245 74.3946C152.283 80.5928 154.461 92.9725 149.141 102.161C138.4 120.639 116.639 125.534 100.563 113.254C84.4866 101.059 80.2046 76.1989 90.8587 57.8215Z" fill="#132E73"/>
</svg>
