<svg width="240" height="160" viewBox="0 0 240 160" fill="none" xmlns="http://www.w3.org/2000/svg">
<path fill-rule="evenodd" clip-rule="evenodd" d="M15.6502 160H224.35C232.475 158.396 238.933 150.812 239.985 141.424V18.6928C238.933 9.20441 232.475 1.62028 224.35 0.0166016H15.5626C7.43795 1.62028 1.06677 9.20441 0.0146484 18.6928V141.424C1.06677 150.812 7.43786 158.396 15.6502 160Z" fill="#FEFEFE"/>
<path fill-rule="evenodd" clip-rule="evenodd" d="M0.0146484 53.339H240V18.6762C238.948 9.18781 232.489 1.60367 224.364 0H15.5773C7.45258 1.60367 1.08139 9.18781 0.0292755 18.6762V53.339H0.0146484Z" fill="#EE992B"/>
<path fill-rule="evenodd" clip-rule="evenodd" d="M15.6502 160H224.35C232.474 158.396 238.933 150.812 239.985 141.424V106.677H0V141.424C1.06673 150.812 7.43784 158.396 15.6502 160Z" fill="#268936"/>
<path fill-rule="evenodd" clip-rule="evenodd" d="M119.971 58.3339L119.445 70.4115L120.059 77.3106L120.585 70.4115L120.059 58.3339C120.585 58.3339 121.111 58.434 121.637 58.434C121.637 58.5342 121.637 58.5343 121.637 58.5343C121.637 59.1357 121.987 59.6367 122.513 59.6367C122.952 59.6367 123.302 59.2359 123.302 58.7348C123.916 58.835 124.355 58.9352 124.881 59.1357L121.651 70.6287L120.599 77.4275L122.689 70.9292L124.954 59.1524C125.48 59.3528 125.918 59.453 126.444 59.7537C126.444 59.854 126.357 59.9541 126.357 60.0543C126.357 60.6557 126.795 61.0568 127.233 61.0568C127.584 61.0568 127.935 60.7561 128.022 60.4554C128.548 60.7561 128.987 60.9564 129.513 61.3573L123.741 71.4472L121.213 77.745L124.705 72.0485L129.513 61.3573C129.951 61.658 130.39 61.9588 130.828 62.2595C130.74 62.4599 130.653 62.6605 130.653 62.9612C130.653 63.4623 131.091 63.8631 131.529 63.8631C131.793 63.8631 132.056 63.7629 132.231 63.4622C132.669 63.8631 133.02 64.3643 133.371 64.7652L125.597 72.8504L121.753 78.1459L126.386 73.7525L133.458 64.7652C133.809 65.2664 134.16 65.6672 134.51 66.1684C134.335 66.2686 134.247 66.5694 134.247 66.8701C134.247 67.4714 134.598 67.8723 135.037 67.8723C135.3 67.8723 135.387 67.8723 135.563 67.6719C135.913 68.173 136.176 68.6741 136.439 69.2755L127.087 74.7715L122.104 78.764L127.613 75.874L136.439 69.2755C136.79 69.8768 136.965 70.4783 137.229 70.9794C136.965 71.0796 136.702 71.4806 136.702 71.8815C136.702 72.4829 137.053 72.8838 137.579 72.8838C137.667 72.8838 137.755 72.8837 137.93 72.7835C138.105 73.3848 138.193 73.9863 138.368 74.4874L128.066 76.9764L122.382 79.3653L128.329 78.2627L138.383 74.571C138.558 75.0722 138.646 75.6736 138.733 76.2749C138.295 76.3752 137.945 76.7761 137.945 77.2772C137.945 77.8786 138.383 78.2795 138.821 78.2795C138.909 78.2795 138.909 78.2795 138.909 78.2795C138.997 78.8808 138.997 79.4823 138.997 80.0837L128.519 79.4822L122.411 80.0837L128.519 80.7852L138.997 80.1838C138.997 80.7852 138.997 81.3865 138.909 81.9879C138.909 81.9879 138.909 81.9879 138.821 81.9879C138.383 81.9879 137.945 82.4892 137.945 82.9904C137.945 83.4915 138.295 83.8924 138.733 83.9926C138.646 84.594 138.47 85.0952 138.383 85.6966L134.803 84.3935L128.344 82.0046L122.397 80.9022L128.081 83.2909L138.383 85.78C138.207 86.3813 138.032 86.9827 137.857 87.4839L137.769 87.3838C137.681 87.3838 137.594 87.3838 137.594 87.3838C137.068 87.3838 136.717 87.8849 136.717 88.386C136.717 88.5865 136.717 88.6867 136.805 88.7869C136.805 88.9874 136.892 89.0876 136.98 89.1878C137.068 89.1878 137.068 89.1878 137.068 89.1878C137.068 89.2881 137.155 89.288 137.155 89.288C137.155 89.288 137.243 89.2881 137.243 89.3883C136.98 89.8894 136.717 90.3905 136.454 90.9919L127.628 84.3935L122.119 81.5036L124.997 83.8089L127.087 85.5128L136.439 91.0086C136.176 91.5098 135.913 92.1113 135.563 92.6124C135.387 92.5122 135.212 92.4118 135.037 92.4118C134.598 92.4118 134.16 92.8129 134.16 93.4142C134.16 93.7149 134.335 94.0155 134.51 94.1157C134.16 94.6169 133.809 95.0178 133.458 95.4187L126.386 86.5318L121.753 82.1384L125.597 87.4337L133.371 95.5191C133.02 95.92 132.669 96.3209 132.231 96.7218C132.143 96.5213 131.968 96.5213 131.705 96.5213C131.266 96.5213 130.828 96.9222 130.828 97.5236C130.828 97.6238 130.916 97.8243 130.916 97.9245C130.477 98.2252 129.951 98.6261 129.513 98.9267L124.705 88.2355L121.213 82.5393L123.741 88.8371L129.513 99.0271C128.987 99.2275 128.548 99.5282 128.022 99.8289C127.935 99.428 127.672 99.2275 127.321 99.2275C126.795 99.2275 126.444 99.7286 126.444 100.23C126.444 100.33 126.444 100.43 126.444 100.631C125.918 100.731 125.48 100.931 124.954 101.132L122.689 89.2547L120.599 82.8566L121.651 89.6556L124.881 101.149C124.355 101.349 123.829 101.449 123.302 101.55C123.302 101.048 122.952 100.748 122.513 100.748C121.987 100.748 121.637 101.149 121.637 101.65C121.637 101.75 121.637 101.75 121.637 101.75C121.111 101.85 120.585 101.85 120.059 101.85L120.585 89.8728L119.971 82.9736L119.445 89.8728L119.971 101.85C119.445 101.85 118.919 101.85 118.393 101.75C118.393 101.75 118.393 101.75 118.393 101.65C118.393 101.149 117.954 100.748 117.516 100.748C117.077 100.748 116.727 101.048 116.639 101.55C116.113 101.449 115.587 101.349 115.148 101.149L118.378 89.6556L119.342 82.8566L117.253 89.2547L115.076 101.132C114.549 100.931 114.023 100.731 113.497 100.631C113.585 100.43 113.585 100.33 113.585 100.23C113.585 99.7286 113.234 99.2275 112.796 99.2275C112.357 99.2275 112.094 99.428 111.919 99.8289C111.481 99.5282 110.955 99.2275 110.516 99.0271L116.288 88.8371L118.816 82.5393L115.324 88.1354L110.516 98.9267C109.99 98.6261 109.552 98.3254 109.113 97.9245C109.201 97.8243 109.289 97.6237 109.289 97.4233C109.289 96.8219 108.938 96.3209 108.412 96.3209C108.149 96.3209 107.886 96.5213 107.798 96.7218C107.36 96.3209 106.921 95.92 106.571 95.5191L114.432 87.4337L118.276 82.1384L113.643 86.5318L106.571 95.4187C106.132 95.0178 105.782 94.5166 105.431 94.1157C105.694 93.9153 105.782 93.6146 105.782 93.3139C105.782 92.8128 105.431 92.4118 104.905 92.4118C104.73 92.4118 104.554 92.4119 104.379 92.5121C104.116 92.1112 103.853 91.5098 103.59 91.0086L112.942 85.5128L117.837 81.5203L112.416 84.4102L103.502 91.0086C103.239 90.4072 103.064 89.9062 102.801 89.405C103.151 89.2045 103.415 88.9038 103.415 88.5029C103.415 87.9015 102.976 87.4003 102.45 87.4003C102.362 87.4003 102.275 87.5006 102.099 87.5006C101.924 86.9995 101.749 86.3981 101.661 85.7967L111.963 83.3077L117.647 80.919L111.7 82.0214L101.646 85.7133C101.471 85.1119 101.383 84.6106 101.296 83.909C101.734 83.909 101.997 83.5082 101.997 83.0071C101.997 82.4057 101.646 82.0046 101.12 82.0046C101.12 82.0046 101.12 82.0046 101.033 82.0046C101.033 81.4033 100.945 80.8019 100.945 80.2006L111.51 80.8019L117.53 80.1002L111.51 79.4989L100.945 80.1002C100.945 79.4989 101.033 78.8976 101.033 78.2962C101.12 78.2962 101.12 78.2962 101.208 78.2962C101.646 78.2962 102.085 77.8953 102.085 77.2939C102.085 76.7928 101.734 76.3919 101.296 76.2917C101.383 75.6903 101.471 75.0889 101.646 74.5877L111.7 78.2795L117.647 79.382L111.963 76.9931L101.661 74.5041C101.749 73.9027 101.924 73.3013 102.099 72.8002C102.187 72.8002 102.362 72.8002 102.45 72.8002C102.976 72.8002 103.327 72.3993 103.327 71.7979C103.327 71.397 103.064 71.0964 102.801 70.9961C103.064 70.3948 103.239 69.7933 103.502 69.2922L112.416 75.8908L117.925 78.7807L112.942 74.7882L103.59 69.2922C103.853 68.6908 104.116 68.1897 104.467 67.6886C104.554 67.889 104.73 67.889 104.905 67.889C105.431 67.889 105.782 67.4882 105.782 66.8868C105.782 66.5861 105.694 66.2854 105.519 66.085C105.782 65.6841 106.132 65.2831 106.571 64.7819L113.643 73.7692L118.276 78.1626L114.432 72.8671L106.571 64.7819C107.009 64.381 107.36 63.8799 107.798 63.5792C107.886 63.7797 108.149 63.8798 108.412 63.8798C108.938 63.8798 109.289 63.4789 109.289 62.8776C109.289 62.6771 109.201 62.4767 109.113 62.2762C109.552 61.9755 109.99 61.6748 110.516 61.3741L115.324 72.0653L118.816 77.7617L116.288 71.4639L110.516 61.3741C110.955 60.9731 111.481 60.7726 111.919 60.4719C112.094 60.8729 112.358 61.0735 112.708 61.0735C113.234 61.0735 113.585 60.6725 113.585 60.1714C113.585 59.9709 113.585 59.8707 113.497 59.7705C114.023 59.4698 114.549 59.3696 115.076 59.1691L117.253 70.946L119.342 77.4442L118.378 70.6454L115.148 59.1524C115.587 58.9519 116.113 58.8517 116.639 58.7515C116.727 59.1524 117.077 59.5533 117.516 59.5533C118.042 59.5533 118.393 59.1524 118.393 58.551V58.4507C118.919 58.3338 119.445 58.3339 119.971 58.3339ZM119.971 56.0286C108.441 56.0286 99.0015 66.8199 99.0015 80.0001C99.0015 93.2805 108.441 104.072 119.971 104.072C131.588 104.072 141.028 93.2805 141.028 80.0001C141.013 66.8199 131.588 56.0286 119.971 56.0286Z" fill="#1A1E72"/>
<path fill-rule="evenodd" clip-rule="evenodd" d="M120.058 76.4084C121.724 76.4084 123.112 78.1124 123.112 80.0001C123.112 82.0046 121.71 83.5917 120.058 83.5917C118.217 83.5917 116.829 81.9879 116.829 80.0001C116.814 78.0957 118.217 76.4084 120.058 76.4084Z" fill="#FEFEFE"/>
<path fill-rule="evenodd" clip-rule="evenodd" d="M120.058 77.3105C121.374 77.3105 122.411 78.5133 122.411 80C122.411 81.6037 121.359 82.7898 120.058 82.7898C118.656 82.7898 117.618 81.587 117.618 80C117.603 78.4966 118.656 77.3105 120.058 77.3105Z" fill="#1A1E72"/>
</svg>
