<svg width="240" height="160" viewBox="0 0 240 160" fill="none" xmlns="http://www.w3.org/2000/svg">
<path fill-rule="evenodd" clip-rule="evenodd" d="M15.6366 160H224.349C232.474 158.396 238.933 150.811 239.985 141.422V18.5778C238.933 9.18867 232.562 1.60384 224.349 0H15.6366C7.51141 1.60384 1.05218 9.18867 0 18.5778V141.422C1.05218 150.811 7.51141 158.396 15.6366 160Z" fill="#FEFEFE"/>
<path fill-rule="evenodd" clip-rule="evenodd" d="M0 53.428H240V18.5778C238.948 9.18867 232.576 1.60384 224.363 0H15.6366C7.51141 1.60384 1.05218 9.18867 0 18.5778V53.428Z" fill="#339E37"/>
<path fill-rule="evenodd" clip-rule="evenodd" d="M15.6366 160H224.349C232.474 158.396 238.933 150.811 239.985 141.422V106.572H0V141.422C1.05218 150.811 7.51141 158.396 15.6366 160Z" fill="#CA101A"/>
<path fill-rule="evenodd" clip-rule="evenodd" d="M120.375 60.7119L117.533 63.1178L118.124 100.858L120.375 103.665L122.74 100.858L123.331 63.1178L120.375 60.7119Z" fill="#CA101A"/>
<path fill-rule="evenodd" clip-rule="evenodd" d="M126.172 56.7195C124.99 58.624 122.542 59.2086 120.67 58.0224C120.67 57.9222 120.473 57.9222 120.374 57.822C118.699 59.1251 116.252 58.8244 114.872 57.0201C114.872 56.9198 114.774 56.8197 114.675 56.7195C114.182 58.5238 115.365 60.5117 117.122 60.9127C118.305 61.2134 119.57 60.9128 120.358 60.0107C121.738 61.3138 123.791 61.414 125.17 60.0107C126.074 59.2087 126.468 57.9224 126.172 56.7195Z" fill="#CA101A"/>
<path fill-rule="evenodd" clip-rule="evenodd" d="M127.552 62.0154C135.206 72.5072 132.955 87.2927 122.542 95.078C117.828 98.5697 111.932 100.174 106.15 99.4719C117.155 103.966 129.72 98.4694 134.138 87.2926C137.669 78.2877 135.009 68.0131 127.552 62.0154Z" fill="#CA101A"/>
<path fill-rule="evenodd" clip-rule="evenodd" d="M113.213 62.0154C105.658 72.5072 107.908 87.2927 118.223 95.078C123.035 98.5697 128.932 100.174 134.713 99.4719C123.709 103.966 111.144 98.4694 106.726 87.2926C103.194 78.2877 105.855 68.0131 113.213 62.0154Z" fill="#CA101A"/>
<path fill-rule="evenodd" clip-rule="evenodd" d="M130.196 61.314C140.61 68.999 142.958 83.6842 135.403 94.2762C135.009 94.7774 134.615 95.3789 134.22 95.7799C143.155 90.8848 146.49 79.5075 141.579 70.4023C139.23 65.9082 135.107 62.6171 130.196 61.314Z" fill="#CA101A"/>
<path fill-rule="evenodd" clip-rule="evenodd" d="M110.553 61.314C100.238 68.999 97.8895 83.6842 105.445 94.2762C105.839 94.7774 106.233 95.3789 106.627 95.7799C97.6924 90.8848 94.3582 79.5075 99.2692 70.4023C101.618 65.9082 105.757 62.6171 110.553 61.314Z" fill="#CA101A"/>
<path fill-rule="evenodd" clip-rule="evenodd" d="M14.76 50.8216H11.4427V47.0292H15.8122V44.5399H16.9521V49.6353H18.0043V44.5399H19.0564V49.6353H20.1963V44.5399H21.2485V50.8384H15.8122V48.3491H12.5826V49.6521H14.76V50.8216ZM0.526324 45.8264H14.76V44.5232H0.526324V45.8264ZM2.70377 50.8216H3.84363V49.6188H2.70377V50.8216ZM0.526324 50.8216H1.6662V48.3324H4.89581V50.8216H10.4052V47.0292H7.08786V48.3324H9.26529V49.6353H6.02106V47.0459H0.511719V50.8216H0.526324Z" fill="#FEFEFE"/>
<path fill-rule="evenodd" clip-rule="evenodd" d="M36.519 50.8216H33.2894V47.0292H37.6589V44.5399H38.7111V49.6353H39.8509V44.5399H40.9031V49.6353H42.043V44.5399H43.0952V50.8384H37.6735V48.3491H34.3562V49.6521H36.5336V50.8216H36.519ZM22.3584 45.8264H36.5044V44.5232H22.3584V45.8264ZM24.5504 50.8216H25.6026V49.6188H24.5504V50.8216ZM22.3584 50.8216H23.4983V48.3324H26.7279V50.8216H32.1496V47.0292H28.9199V48.3324H31.0974V49.6353H27.7801V47.0459H22.3584V50.8216Z" fill="#FEFEFE"/>
<path fill-rule="evenodd" clip-rule="evenodd" d="M58.3667 50.8216H55.1371V47.0292H59.4189V44.5399H60.5587V49.6353H61.6109V44.5399H62.7508V49.6353H63.803V44.5399H64.9428V50.8384H59.4335V48.3491H56.2039V49.6521H58.3813V50.8216H58.3667ZM44.2061 45.8264H58.3667V44.5232H44.2061V45.8264ZM46.3835 50.8216H47.4357V49.6188H46.3835V50.8216ZM44.2061 50.8216H45.2582V48.3324H48.5755V50.8216H53.9972V47.0292H50.7676V48.3324H52.945V49.6353H49.6277V47.0459H44.2061V50.8216Z" fill="#FEFEFE"/>
<path fill-rule="evenodd" clip-rule="evenodd" d="M80.2 50.8216H76.8827V47.0292H81.2522V44.5399H82.392V49.6353H83.4442V44.5399H84.5841V49.6353H85.6363V44.5399H86.7761V50.8384H81.2668V48.3491H78.0372V49.6521H80.2146V50.8216H80.2ZM65.9663 45.8264H80.2V44.5232H65.9663V45.8264ZM68.1437 50.8216H69.2836V49.6188H68.1437V50.8216ZM65.9663 50.8216H67.1062V48.3324H70.3358V50.8216H75.8451V47.0292H72.5278V48.3324H74.7053V49.6353H71.4757V47.0459H65.9663V50.8216Z" fill="#FEFEFE"/>
<path fill-rule="evenodd" clip-rule="evenodd" d="M101.959 50.8216H98.7298V47.0292H103.099V44.5399H104.152V49.6353H105.291V44.5399H106.344V49.6353H107.483V44.5399H108.536V50.8384H103.114V48.3491H99.7966V49.6521H101.974V50.8216H101.959ZM87.7988 45.8264H101.959V44.5232H87.7988V45.8264ZM89.9909 50.8216H91.0431V49.6188H89.9909V50.8216ZM87.7988 50.8216H88.9387V48.3324H92.1683V50.8216H97.59V47.0292H94.3604V48.3324H96.5378V49.6353H93.3082V47.0459H87.7988V50.8216Z" fill="#FEFEFE"/>
<path fill-rule="evenodd" clip-rule="evenodd" d="M123.792 50.8216H120.562V47.0292H124.932V44.5399H125.984V49.6353H127.124V44.5399H128.176V49.6353H129.228V44.5399H130.368V50.8384H124.946V48.3491H121.629V49.6521H123.807V50.8216H123.792ZM109.646 45.8264H123.807V44.5232H109.646V45.8264ZM111.823 50.8216H112.876V49.6188H111.823V50.8216ZM109.646 50.8216H110.698V48.3324H114.015V50.8216H119.437V47.0292H116.208V48.3324H118.297V49.6353H115.068V47.0459H109.646V50.8216Z" fill="#FEFEFE"/>
<path fill-rule="evenodd" clip-rule="evenodd" d="M145.64 50.8216H142.323V47.0292H146.692V44.5399H147.832V49.6353H148.884V44.5399H150.024V49.6353H151.076V44.5399H152.216V50.8384H146.707V48.3491H143.477V49.6521H145.655V50.8216H145.64ZM131.392 45.8264H145.625V44.5232H131.392V45.8264ZM133.584 50.8216H134.724V49.6188H133.584V50.8216ZM131.392 50.8216H132.531V48.3324H135.761V50.8216H141.27V47.0292H137.953V48.3324H140.131V49.6353H136.901V47.0459H131.392V50.8216Z" fill="#FEFEFE"/>
<path fill-rule="evenodd" clip-rule="evenodd" d="M167.487 50.8216H164.17V47.0292H168.539V44.5399H169.679V49.6353H170.731V44.5399H171.783V49.6353H172.923V44.5399H173.976V50.8384H168.554V48.3491H165.324V49.6521H167.502V50.8216H167.487ZM153.239 45.8264H167.472V44.5232H153.239V45.8264ZM155.431 50.8216H156.571V49.6188H155.431V50.8216ZM153.239 50.8216H154.379V48.3324H157.608V50.8216H163.03V47.0292H159.8V48.3324H161.978V49.6353H158.748V47.0459H153.239V50.8216Z" fill="#FEFEFE"/>
<path fill-rule="evenodd" clip-rule="evenodd" d="M189.232 50.8216H186.002V47.0292H190.372V44.5399H191.424V49.6353H192.564V44.5399H193.616V49.6353H194.756V44.5399H195.808V50.8384H190.386V48.3491H187.069V49.6521H189.247V50.8216H189.232ZM175.086 45.8264H189.232V44.5232H175.086V45.8264ZM177.263 50.8216H178.316V49.6188H177.263V50.8216ZM175.086 50.8216H176.123V48.3324H179.441V50.8216H184.862V47.0292H181.633V48.3324H183.81V49.6353H180.493V47.0459H175.071V50.8216H175.086Z" fill="#FEFEFE"/>
<path fill-rule="evenodd" clip-rule="evenodd" d="M211.08 50.8216H207.762V47.0292H212.132V44.5399H213.272V49.6353H214.324V44.5399H215.464V49.6353H216.516V44.5399H217.656V50.8384H212.146V48.3491H208.917V49.6521H211.094V50.8216H211.08ZM196.919 45.8264H211.065V44.5232H196.919V45.8264ZM199.111 50.8216H200.163V49.6188H199.111V50.8216ZM196.919 50.8216H197.971V48.3324H201.288V50.8216H206.71V47.0292H203.48V48.3324H205.57V49.6353H202.341V47.0459H196.919V50.8216Z" fill="#FEFEFE"/>
<path fill-rule="evenodd" clip-rule="evenodd" d="M232.825 50.8216H229.595V47.0292H233.965V44.5399H235.104V49.6353H236.157V44.5399H237.297V49.6353H238.349V44.5399H239.489V50.8384H233.979V48.3491H230.75V49.6521H232.839V50.8216H232.825ZM218.679 45.8264H232.825V44.5232H218.679V45.8264ZM220.944 50.8216H221.996V49.6188H220.944V50.8216ZM218.679 50.8216H219.819V48.3324H223.048V50.8216H228.558V47.0292H225.24V48.3324H227.418V49.6353H224.188V47.0459H218.679V50.8216Z" fill="#FEFEFE"/>
<path fill-rule="evenodd" clip-rule="evenodd" d="M11.4423 54.7147H21.2334V52.1252H11.4423V54.7147ZM0.525879 54.7147H10.4047V52.1252H0.525879V54.7147Z" fill="#FEFEFE"/>
<path fill-rule="evenodd" clip-rule="evenodd" d="M33.2894 54.7147H43.0806V52.1252H33.2894V54.7147ZM22.3584 54.7147H32.1496V52.1252H22.3584V54.7147Z" fill="#FEFEFE"/>
<path fill-rule="evenodd" clip-rule="evenodd" d="M55.1224 54.7147H64.9136V52.1252H55.1224V54.7147ZM44.2061 54.7147H53.9972V52.1252H44.2061V54.7147Z" fill="#FEFEFE"/>
<path fill-rule="evenodd" clip-rule="evenodd" d="M76.8827 54.7147H86.7615V52.1252H76.8827V54.7147ZM65.9663 54.7147H75.8451V52.1252H65.9663V54.7147Z" fill="#FEFEFE"/>
<path fill-rule="evenodd" clip-rule="evenodd" d="M98.7298 54.7147H108.521V52.1252H98.7298V54.7147ZM87.7988 54.7147H97.59V52.1252H87.7988V54.7147Z" fill="#FEFEFE"/>
<path fill-rule="evenodd" clip-rule="evenodd" d="M120.562 54.7147H130.354V52.1252H120.562V54.7147ZM109.646 54.7147H119.437V52.1252H109.646V54.7147Z" fill="#FEFEFE"/>
<path fill-rule="evenodd" clip-rule="evenodd" d="M142.323 54.7147H152.201V52.1252H142.323V54.7147ZM131.392 54.7147H141.27V52.1252H131.392V54.7147Z" fill="#FEFEFE"/>
<path fill-rule="evenodd" clip-rule="evenodd" d="M164.155 54.7147H173.946V52.1252H164.155V54.7147ZM153.239 54.7147H163.03V52.1252H153.239V54.7147Z" fill="#FEFEFE"/>
<path fill-rule="evenodd" clip-rule="evenodd" d="M186.003 54.7147H195.794V52.1252H186.003V54.7147ZM175.086 54.7147H184.878V52.1252H175.086V54.7147Z" fill="#FEFEFE"/>
<path fill-rule="evenodd" clip-rule="evenodd" d="M207.762 54.7147H217.641V52.1252H207.762V54.7147ZM196.919 54.7147H206.71V52.1252H196.919V54.7147Z" fill="#FEFEFE"/>
<path fill-rule="evenodd" clip-rule="evenodd" d="M229.595 54.7147H239.474V52.1252H229.595V54.7147ZM218.679 54.7147H228.558V52.1252H218.679V54.7147Z" fill="#FEFEFE"/>
<path fill-rule="evenodd" clip-rule="evenodd" d="M14.76 115.443H11.4427V111.651H15.8122V109.061H16.9521V114.157H18.0043V109.061H19.0564V114.157H20.1963V109.061H21.2485V115.46H15.8122V112.971H12.5826V114.174H14.76V115.443ZM0.526324 110.348H14.76V109.045H0.526324V110.348ZM2.70377 115.443H3.84363V114.14H2.70377V115.443ZM0.526324 115.443H1.6662V112.954H4.89581V115.443H10.4052V111.651H7.08786V112.954H9.26529V114.157H6.02106V111.668H0.511719V115.443H0.526324Z" fill="#FEFEFE"/>
<path fill-rule="evenodd" clip-rule="evenodd" d="M36.519 115.443H33.2894V111.651H37.6589V109.061H38.7111V114.157H39.8509V109.061H40.9031V114.157H42.043V109.061H43.0952V115.46H37.6735V112.971H34.3562V114.174H36.5336V115.443H36.519ZM22.3584 110.348H36.5044V109.045H22.3584V110.348ZM24.5504 115.443H25.6026V114.14H24.5504V115.443ZM22.3584 115.443H23.4983V112.954H26.7279V115.443H32.1496V111.651H28.9199V112.954H31.0974V114.157H27.7801V111.668H22.3584V115.443Z" fill="#FEFEFE"/>
<path fill-rule="evenodd" clip-rule="evenodd" d="M58.3667 115.443H55.1371V111.651H59.4189V109.061H60.5587V114.157H61.6109V109.061H62.7508V114.157H63.803V109.061H64.9428V115.46H59.4335V112.971H56.2039V114.174H58.3813V115.443H58.3667ZM44.2061 110.348H58.3667V109.045H44.2061V110.348ZM46.3835 115.443H47.4357V114.14H46.3835V115.443ZM44.2061 115.443H45.2582V112.954H48.5755V115.443H53.9972V111.651H50.7676V112.954H52.945V114.157H49.6277V111.668H44.2061V115.443Z" fill="#FEFEFE"/>
<path fill-rule="evenodd" clip-rule="evenodd" d="M80.2 115.443H76.8827V111.651H81.2522V109.061H82.392V114.157H83.4442V109.061H84.5841V114.157H85.6363V109.061H86.7761V115.46H81.2668V112.971H78.0372V114.174H80.2146V115.443H80.2ZM65.9663 110.348H80.2V109.045H65.9663V110.348ZM68.1437 115.443H69.2836V114.14H68.1437V115.443ZM65.9663 115.443H67.1062V112.954H70.3358V115.443H75.8451V111.651H72.5278V112.954H74.7053V114.157H71.4757V111.668H65.9663V115.443Z" fill="#FEFEFE"/>
<path fill-rule="evenodd" clip-rule="evenodd" d="M101.959 115.443H98.7298V111.651H103.099V109.061H104.152V114.157H105.291V109.061H106.344V114.157H107.483V109.061H108.536V115.46H103.114V112.971H99.7966V114.174H101.974V115.443H101.959ZM87.7988 110.348H101.959V109.045H87.7988V110.348ZM89.9909 115.443H91.0431V114.14H89.9909V115.443ZM87.7988 115.443H88.9387V112.954H92.1683V115.443H97.59V111.651H94.3604V112.954H96.5378V114.157H93.3082V111.668H87.7988V115.443Z" fill="#FEFEFE"/>
<path fill-rule="evenodd" clip-rule="evenodd" d="M123.792 115.443H120.562V111.651H124.932V109.061H125.984V114.157H127.124V109.061H128.176V114.157H129.228V109.061H130.368V115.46H124.946V112.971H121.629V114.174H123.807V115.443H123.792ZM109.646 110.348H123.807V109.045H109.646V110.348ZM111.823 115.443H112.876V114.14H111.823V115.443ZM109.646 115.443H110.698V112.954H114.015V115.443H119.437V111.651H116.208V112.954H118.297V114.157H115.068V111.668H109.646V115.443Z" fill="#FEFEFE"/>
<path fill-rule="evenodd" clip-rule="evenodd" d="M145.64 115.443H142.323V111.651H146.692V109.061H147.832V114.157H148.884V109.061H150.024V114.157H151.076V109.061H152.216V115.46H146.707V112.971H143.477V114.174H145.655V115.443H145.64ZM131.392 110.348H145.625V109.045H131.392V110.348ZM133.584 115.443H134.724V114.14H133.584V115.443ZM131.392 115.443H132.531V112.954H135.761V115.443H141.27V111.651H137.953V112.954H140.131V114.157H136.901V111.668H131.392V115.443Z" fill="#FEFEFE"/>
<path fill-rule="evenodd" clip-rule="evenodd" d="M167.487 115.443H164.17V111.651H168.539V109.061H169.679V114.157H170.731V109.061H171.783V114.157H172.923V109.061H173.976V115.46H168.554V112.971H165.324V114.174H167.502V115.443H167.487ZM153.239 110.348H167.472V109.045H153.239V110.348ZM155.431 115.443H156.571V114.14H155.431V115.443ZM153.239 115.443H154.379V112.954H157.608V115.443H163.03V111.651H159.8V112.954H161.978V114.157H158.748V111.668H153.239V115.443Z" fill="#FEFEFE"/>
<path fill-rule="evenodd" clip-rule="evenodd" d="M189.232 115.443H186.002V111.651H190.372V109.061H191.424V114.157H192.564V109.061H193.616V114.157H194.756V109.061H195.808V115.46H190.386V112.971H187.069V114.174H189.247V115.443H189.232ZM175.086 110.348H189.232V109.045H175.086V110.348ZM177.263 115.443H178.316V114.14H177.263V115.443ZM175.086 115.443H176.123V112.954H179.441V115.443H184.862V111.651H181.633V112.954H183.81V114.157H180.493V111.668H175.071V115.443H175.086Z" fill="#FEFEFE"/>
<path fill-rule="evenodd" clip-rule="evenodd" d="M211.08 115.443H207.762V111.651H212.132V109.061H213.272V114.157H214.324V109.061H215.464V114.157H216.516V109.061H217.656V115.46H212.146V112.971H208.917V114.174H211.094V115.443H211.08ZM196.919 110.348H211.065V109.045H196.919V110.348ZM199.111 115.443H200.163V114.14H199.111V115.443ZM196.919 115.443H197.971V112.954H201.288V115.443H206.71V111.651H203.48V112.954H205.57V114.157H202.341V111.668H196.919V115.443Z" fill="#FEFEFE"/>
<path fill-rule="evenodd" clip-rule="evenodd" d="M232.825 115.443H229.595V111.651H233.965V109.061H235.104V114.157H236.157V109.061H237.297V114.157H238.349V109.061H239.489V115.46H233.979V112.971H230.75V114.174H232.839V115.443H232.825ZM218.679 110.348H232.825V109.045H218.679V110.348ZM220.944 115.443H221.996V114.14H220.944V115.443ZM218.679 115.443H219.819V112.954H223.048V115.443H228.558V111.651H225.24V112.954H227.418V114.157H224.188V111.668H218.679V115.443Z" fill="#FEFEFE"/>
<path fill-rule="evenodd" clip-rule="evenodd" d="M11.4423 107.858H21.2334V105.269H11.4423V107.858ZM0.525879 107.858H10.4047V105.269H0.525879V107.858Z" fill="#FEFEFE"/>
<path fill-rule="evenodd" clip-rule="evenodd" d="M33.2894 107.858H43.0806V105.269H33.2894V107.858ZM22.3584 107.858H32.1496V105.269H22.3584V107.858Z" fill="#FEFEFE"/>
<path fill-rule="evenodd" clip-rule="evenodd" d="M55.1224 107.858H64.9136V105.269H55.1224V107.858ZM44.2061 107.858H53.9972V105.269H44.2061V107.858Z" fill="#FEFEFE"/>
<path fill-rule="evenodd" clip-rule="evenodd" d="M76.8827 107.858H86.7615V105.269H76.8827V107.858ZM65.9663 107.858H75.8451V105.269H65.9663V107.858Z" fill="#FEFEFE"/>
<path fill-rule="evenodd" clip-rule="evenodd" d="M98.7298 107.858H108.521V105.269H98.7298V107.858ZM87.7988 107.858H97.59V105.269H87.7988V107.858Z" fill="#FEFEFE"/>
<path fill-rule="evenodd" clip-rule="evenodd" d="M120.562 107.858H130.354V105.269H120.562V107.858ZM109.646 107.858H119.437V105.269H109.646V107.858Z" fill="#FEFEFE"/>
<path fill-rule="evenodd" clip-rule="evenodd" d="M142.323 107.858H152.201V105.269H142.323V107.858ZM131.392 107.858H141.27V105.269H131.392V107.858Z" fill="#FEFEFE"/>
<path fill-rule="evenodd" clip-rule="evenodd" d="M164.155 107.858H173.946V105.269H164.155V107.858ZM153.239 107.858H163.03V105.269H153.239V107.858Z" fill="#FEFEFE"/>
<path fill-rule="evenodd" clip-rule="evenodd" d="M186.003 107.858H195.794V105.269H186.003V107.858ZM175.086 107.858H184.878V105.269H175.086V107.858Z" fill="#FEFEFE"/>
<path fill-rule="evenodd" clip-rule="evenodd" d="M207.762 107.858H217.641V105.269H207.762V107.858ZM196.919 107.858H206.71V105.269H196.919V107.858Z" fill="#FEFEFE"/>
<path fill-rule="evenodd" clip-rule="evenodd" d="M229.595 107.858H239.474V105.269H229.595V107.858ZM218.679 107.858H228.558V105.269H218.679V107.858Z" fill="#FEFEFE"/>
</svg>
