<svg width="240" height="160" viewBox="0 0 240 160" fill="none" xmlns="http://www.w3.org/2000/svg">
<path fill-rule="evenodd" clip-rule="evenodd" d="M15.6494 160H224.336C230.532 158.797 235.777 154.102 238.32 147.72H1.57812C4.20826 154.102 9.36626 158.797 15.6494 160Z" fill="#CF0E19"/>
<path fill-rule="evenodd" clip-rule="evenodd" d="M1.59269 147.721H238.334C239.211 145.716 239.737 143.628 240 141.322V135.425H0.0292969V141.322C0.277699 143.611 0.803648 145.716 1.59269 147.721Z" fill="#FEFEFE"/>
<path d="M239.985 123.145H0.0141602V135.424H239.985V123.145Z" fill="#CF0E19"/>
<path d="M239.985 110.849H0.0141602V123.129H239.985V110.849Z" fill="#FEFEFE"/>
<path d="M239.985 98.4692H0.0141602V110.849H239.985V98.4692Z" fill="#CF0E19"/>
<path d="M239.985 86.1899H0.0141602V98.4694H239.985V86.1899Z" fill="#FEFEFE"/>
<path d="M239.985 73.8936H0.0141602V86.173H239.985V73.8936Z" fill="#CF0E19"/>
<path d="M239.985 61.5142H0.0141602V73.8938H239.985V61.5142Z" fill="#FEFEFE"/>
<path d="M239.985 49.2346H0.0141602V61.5141H239.985V49.2346Z" fill="#CF0E19"/>
<path d="M239.985 36.9382H0.0141602V49.2177H239.985V36.9382Z" fill="#FEFEFE"/>
<path d="M239.985 24.6592H0.0141602V36.9386H239.985V24.6592Z" fill="#CF0E19"/>
<path fill-rule="evenodd" clip-rule="evenodd" d="M0.0146261 24.6593H239.985V18.6616C239.722 16.4563 239.196 14.2677 238.32 12.2629H1.57802C0.788977 14.2677 0.263014 16.4563 0 18.6616V24.6593H0.0146261Z" fill="#FEFEFE"/>
<path fill-rule="evenodd" clip-rule="evenodd" d="M1.59229 12.2794H238.334C235.806 5.98101 230.56 1.18618 224.35 0H15.5759C9.3659 1.18618 4.20781 5.98101 1.59229 12.2794Z" fill="#CF0E19"/>
<path fill-rule="evenodd" clip-rule="evenodd" d="M0.0141602 98.5695H97.8994V0H13.9064C6.64693 1.83421 0.954235 10.6231 0.0141602 21.3609V98.5695Z" fill="#183060"/>
<path fill-rule="evenodd" clip-rule="evenodd" d="M17.6493 13.3652L19.1113 18.3808H23.6088L19.8869 21.3952L21.349 26.4108L17.6493 23.3711L13.9271 26.4108L15.3894 21.3952L11.6895 18.3808H16.187L17.6493 13.3652Z" fill="#FEFEFE"/>
<path fill-rule="evenodd" clip-rule="evenodd" d="M17.6493 42.7749L19.1113 47.7904H23.6088L19.8869 50.8048L21.349 55.7951L17.6493 52.6287L13.9271 55.7951L15.3894 50.8048L11.6895 47.7904H16.187L17.6493 42.7749Z" fill="#FEFEFE"/>
<path fill-rule="evenodd" clip-rule="evenodd" d="M17.6493 72.1843L19.1113 77.1746H23.6088L19.8869 80.2143L21.349 85.2046L17.6493 82.0382L13.9271 85.2046L15.3894 80.2143L11.6895 77.1746H16.187L17.6493 72.1843Z" fill="#FEFEFE"/>
<path fill-rule="evenodd" clip-rule="evenodd" d="M30.8976 27.4246L32.3377 32.4148H36.8571L33.268 35.4545L34.5973 40.2927L30.8976 37.2531L27.3085 40.2927L28.6377 35.4545L25.0708 32.4148H29.5683L30.8976 27.4246Z" fill="#FEFEFE"/>
<path fill-rule="evenodd" clip-rule="evenodd" d="M30.8976 56.8342L32.3377 61.8245H36.8571L33.268 64.8389L34.5973 69.7025L30.8976 66.8147L27.3085 69.7025L28.6377 64.8389L25.0708 61.8245H29.5683L30.8976 56.8342Z" fill="#FEFEFE"/>
<path fill-rule="evenodd" clip-rule="evenodd" d="M44.3897 13.3652L45.852 18.3808H50.3714L46.6496 21.3952L48.1119 26.4108L44.3897 23.3711L40.6898 26.4108L42.1521 21.3952L38.4302 18.3808H42.9496L44.3897 13.3652Z" fill="#FEFEFE"/>
<path fill-rule="evenodd" clip-rule="evenodd" d="M44.3897 42.7749L45.852 47.7904H50.3714L46.6496 50.8048L48.1119 55.7951L44.3897 52.6287L40.6898 55.7951L42.1521 50.8048L38.4302 47.7904H42.9496L44.3897 42.7749Z" fill="#FEFEFE"/>
<path fill-rule="evenodd" clip-rule="evenodd" d="M44.3897 72.1843L45.852 77.1746H50.3714L46.6496 80.2143L48.1119 85.2046L44.3897 82.0382L40.6898 85.2046L42.1521 80.2143L38.4302 77.1746H42.9496L44.3897 72.1843Z" fill="#FEFEFE"/>
<path fill-rule="evenodd" clip-rule="evenodd" d="M57.6383 27.4246L59.1006 32.4148H63.5981L59.8981 35.4545L61.3604 40.2927L57.6383 37.2531L54.0713 40.2927L55.4006 35.4545L51.6787 32.4148H56.3312L57.6383 27.4246Z" fill="#FEFEFE"/>
<path fill-rule="evenodd" clip-rule="evenodd" d="M57.6383 56.8342L59.1006 61.8245H63.5981L59.8981 64.8389L61.3604 69.7025L57.6383 66.8147L54.0713 69.7025L55.4006 64.8389L51.6787 61.8245H56.3312L57.6383 56.8342Z" fill="#FEFEFE"/>
<path fill-rule="evenodd" clip-rule="evenodd" d="M71.1529 13.3652L72.6152 18.3808H77.1127L73.4127 21.3952L74.875 26.4108L71.1529 23.3711L67.4532 26.4108L68.9155 21.3952L65.1934 18.3808H69.6909L71.1529 13.3652Z" fill="#FEFEFE"/>
<path fill-rule="evenodd" clip-rule="evenodd" d="M71.1529 42.7749L72.6152 47.7904H77.1127L73.4127 50.8048L74.875 55.7951L71.1529 52.6287L67.4532 55.7951L68.9155 50.8048L65.1934 47.7904H69.6909L71.1529 42.7749Z" fill="#FEFEFE"/>
<path fill-rule="evenodd" clip-rule="evenodd" d="M71.1529 72.1843L72.6152 77.1746H77.1127L73.4127 80.2143L74.875 85.2046L71.1529 82.0382L67.4532 85.2046L68.9155 80.2143L65.1934 77.1746H69.6909L71.1529 72.1843Z" fill="#FEFEFE"/>
<path fill-rule="evenodd" clip-rule="evenodd" d="M84.4022 27.4246L85.8642 32.4148H90.3617L86.6618 35.4545L88.1019 40.2927L84.4022 37.2531L80.835 40.2927L82.1424 35.4545L78.4424 32.4148H83.0727L84.4022 27.4246Z" fill="#FEFEFE"/>
<path fill-rule="evenodd" clip-rule="evenodd" d="M84.4022 56.8342L85.8642 61.8245H90.3617L86.6618 64.8389L88.1019 69.7025L84.4022 66.8147L80.835 69.7025L82.1424 64.8389L78.4424 61.8245H83.0727L84.4022 56.8342Z" fill="#FEFEFE"/>
</svg>
